<svg width="15" height="34" viewBox="0 0 15 34" fill="none" xmlns="http://www.w3.org/2000/svg">
<path d="M7.10843 26.665C6.7272 26.2028 6.35399 25.7667 5.99713 25.3174C4.66942 23.6456 3.41193 21.9276 2.32565 20.0986C1.51158 18.7285 0.784725 17.3196 0.317894 15.7988C-0.23262 14.0056 -0.074237 12.2715 0.840829 10.6234C1.65971 9.14885 2.89284 8.09308 4.51552 7.48013C6.01894 6.91095 7.5573 6.85055 9.10816 7.28445C10.5481 7.68722 11.7331 8.4675 12.67 9.59107C13.5357 10.6293 14.0298 11.82 14.1824 13.1387C14.2866 14.0398 14.1574 14.9217 13.8829 15.7858C13.4209 17.2419 12.7235 18.5975 11.9444 19.9153C10.5657 22.2465 8.95554 24.4253 7.23122 26.5282C7.20076 26.564 7.16678 26.5991 7.10843 26.665ZM4.07851 13.7664C4.07498 14.5394 4.39109 15.2821 4.95729 15.8311C5.52349 16.3801 6.29341 16.6905 7.09768 16.6938C7.90194 16.6972 8.67467 16.3934 9.24586 15.8492C9.81706 15.305 10.1399 14.565 10.1435 13.792C10.1589 12.1895 8.79523 10.8672 7.12253 10.8604C6.72394 10.8585 6.32887 10.9322 5.95998 11.0773C5.59109 11.2224 5.25563 11.436 4.97283 11.706C4.69003 11.976 4.46546 12.297 4.31199 12.6505C4.15853 13.0041 4.07918 13.3833 4.07851 13.7664Z" fill="#D62424"/>
</svg>
