<svg width="76" height="20" viewBox="0 0 76 20" fill="none" xmlns="http://www.w3.org/2000/svg">
<path d="M7.18875 4.88183L14.3607 15.1412H12.8026L5.63064 4.88183H7.18875ZM20.0005 10C20.0005 15.5227 15.5232 20 10.0005 20C4.47775 20 0.000488281 15.5227 0.000488281 10C0.000488281 4.47726 4.47791 0 10.0005 0C15.5231 0 20.0002 4.47694 20.0002 10H20.0005ZM15.7501 15.8709L11.0942 9.09503L15.3751 4.11883H14.3606L10.6442 8.43961L7.67465 4.11834H4.25053L8.74001 10.652L4.25053 15.8703H5.26504L9.19038 11.3074L12.3257 15.8703L15.7501 15.8709Z" fill="#7389AA"/>
<path d="M38.0003 0C32.4862 0 28.0005 4.4859 28.0005 9.99982C28.0005 15.5139 32.4862 20 38.0003 20C43.514 20 48.0001 15.5139 48.0001 9.99982C48.0001 4.4859 43.514 0 38.0003 0ZM40.8265 6.31269C40.8265 6.41124 40.7467 6.49105 40.648 6.49123L39.5113 6.49194C38.7612 6.49194 38.6241 6.78402 38.6241 7.35927V8.55261H40.5737C40.625 8.55261 40.6739 8.57474 40.7076 8.61331C40.7414 8.65187 40.7571 8.70311 40.7508 8.75399L40.4732 10.9023C40.4618 10.9914 40.3857 11.058 40.2961 11.058H38.6241V16.3925C38.6241 16.4912 38.5443 16.571 38.4456 16.571H36.2274C36.1287 16.571 36.0489 16.4912 36.0489 16.3925V11.058H34.3716C34.2728 11.058 34.193 10.9782 34.193 10.8795V8.73114C34.193 8.63241 34.2728 8.55261 34.3716 8.55261H36.0489V7.14663C36.0489 5.2845 37.1758 4.12794 38.9903 4.12794C39.7703 4.12794 40.4596 4.18596 40.6714 4.21399C40.7603 4.22578 40.8265 4.30148 40.8265 4.39092V6.31269Z" fill="#7389AA"/>
<path d="M66 0C60.4773 0 56 4.47734 56 10C56 15.5227 60.4773 20 66 20C71.5227 20 76 15.5227 76 10C76 4.47734 71.5227 0 66 0ZM63.0922 15.2633H60.9105V8.23555H63.0922V15.2633ZM61.9984 7.27617C61.6622 7.2768 61.3395 7.14401 61.101 6.90696C60.8626 6.66991 60.7279 6.34794 60.7266 6.01172C60.7252 5.67498 60.8577 5.35149 61.0948 5.1124C61.3319 4.8733 61.6543 4.73817 61.991 4.73672C62.3275 4.73547 62.6507 4.86781 62.8897 5.10466C63.1287 5.34152 63.2639 5.66353 63.2656 6C63.2664 6.33686 63.1336 6.66029 62.8964 6.89947C62.6592 7.13865 62.3369 7.27411 62 7.27617H61.9984ZM71.2617 15.2633H69.0813V11.8422C69.0813 11.0262 69.0656 9.98008 67.9484 9.98008C66.8313 9.98008 66.6324 10.8672 66.6324 11.7828V15.2633H64.4602V8.23555H66.5535V9.19336H66.584C66.8746 8.64062 67.5863 8.05781 68.6484 8.05781C70.8562 8.05781 71.2629 9.51328 71.2629 11.4027L71.2617 15.2633Z" fill="#7389AA"/>
</svg>
