<svg width="310" height="77" viewBox="0 0 310 77" fill="none" xmlns="http://www.w3.org/2000/svg">
<rect width="310" height="77" transform="translate(-0.253906)" fill="white"/>
<path d="M154.923 38.4647V38.4655L154.922 38.4647L154.923 38.4639V38.4647Z" fill="#212121"/>
<path d="M169.349 47.9868C168.387 48.0887 165.908 48.1158 164.415 48.1158C160.873 48.1158 159.027 46.7612 159.027 43.3721V33.5524C159.027 30.1606 160.875 28.8086 164.415 28.8086C165.908 28.8086 168.286 28.8596 169.349 28.9615C169.5 28.9873 169.601 29.166 169.601 29.3188V30.5922C169.601 30.7702 169.5 30.8979 169.323 30.8979H164.44C161.758 30.8979 161.329 31.612 161.329 33.5504V37.0982H169.095C169.23 37.0987 169.358 37.1527 169.453 37.2483C169.548 37.3439 169.601 37.4734 169.601 37.6085V38.5761C169.601 38.7111 169.548 38.8406 169.453 38.9362C169.358 39.0318 169.23 39.0858 169.095 39.0863H161.329V43.3714C161.329 45.3066 161.758 46.0239 164.44 46.0239H169.323C169.5 46.0239 169.601 46.1529 169.601 46.3296V47.6301C169.601 47.783 169.5 47.961 169.349 47.9868Z" fill="#007AFF"/>
<path d="M178.101 48.1143C176.176 48.1143 174.23 47.9853 173.497 47.8563C173.168 47.8053 172.965 47.5982 172.965 47.219V29.6973C172.965 29.3399 173.168 29.1103 173.497 29.0593C174.23 28.9303 176.178 28.8013 178.101 28.8013C182.783 28.8013 185.767 31.2241 185.767 36.7355V40.1788C185.767 45.6399 182.781 48.1143 178.101 48.1143ZM183.465 36.7387C183.465 32.1227 181.137 30.7964 178.101 30.7964C176.911 30.7964 176.128 30.8222 175.292 30.8732V46.0733C176.102 46.1243 176.911 46.1243 178.101 46.1243C181.137 46.1243 183.465 44.7697 183.465 40.1814V36.7387Z" fill="#007AFF"/>
<path d="M195.584 48.1144C191.485 48.1144 189.105 45.9212 189.105 41.0497V29.4703C189.105 29.4067 189.118 29.3438 189.142 29.285C189.166 29.2262 189.201 29.1728 189.246 29.1278C189.29 29.0828 189.343 29.0471 189.402 29.0227C189.46 28.9984 189.523 28.9858 189.586 28.9858H190.954C191.017 28.9858 191.08 28.9984 191.138 29.0227C191.196 29.0471 191.249 29.0828 191.294 29.1278C191.339 29.1728 191.374 29.2262 191.398 29.285C191.422 29.3438 191.435 29.4067 191.434 29.4703V41.0497C191.434 44.3395 192.447 46.125 195.584 46.125C198.721 46.125 199.733 44.3653 199.733 41.0497V29.4703C199.733 29.4067 199.745 29.3438 199.769 29.2851C199.793 29.2264 199.829 29.173 199.873 29.128C199.918 29.083 199.971 29.0473 200.029 29.0229C200.087 28.9985 200.15 28.9859 200.213 28.9858H201.579C201.643 28.9858 201.705 28.9984 201.764 29.0227C201.822 29.0471 201.875 29.0828 201.92 29.1278C201.964 29.1728 202 29.2262 202.024 29.2849C202.048 29.3437 202.06 29.4067 202.06 29.4703V41.0497C202.06 45.9205 199.682 48.1144 195.584 48.1144Z" fill="#007AFF"/>
<path d="M216.353 47.7829C215.291 47.9868 214.301 48.1145 212.153 48.1145C209.041 48.1145 205.475 46.4309 205.475 40.2332V36.6854C205.475 30.4367 209.041 28.8047 212.153 28.8047C213.747 28.8047 215.291 29.0343 216.403 29.213C216.631 29.2382 216.809 29.3149 216.809 29.5446V30.8502C216.809 31.003 216.758 31.1308 216.505 31.1308H216.429C215.518 31.054 213.646 30.9011 212.178 30.9011C209.699 30.9011 207.777 32.3551 207.777 36.6905V40.2383C207.777 44.5235 209.701 46.0284 212.178 46.0284C213.621 46.0284 215.443 45.8994 216.353 45.8239H216.454C216.732 45.8239 216.859 45.9529 216.859 46.2322V47.2778C216.86 47.5784 216.632 47.732 216.353 47.7829Z" fill="#007AFF"/>
<path d="M232.597 47.9357H231.105C230.878 47.9357 230.726 47.757 230.675 47.5532L229.029 41.687H222.477L220.858 47.5532C220.807 47.757 220.604 47.9357 220.402 47.9357H218.91C218.657 47.9357 218.48 47.757 218.48 47.5274C218.475 47.4669 218.484 47.4062 218.505 47.3493L223.187 30.7455C223.617 29.1897 224.806 28.8071 225.768 28.8071C226.703 28.8071 227.893 29.1645 228.323 30.7197L233.005 47.3493C233.026 47.4063 233.034 47.4669 233.03 47.5274C233.03 47.757 232.875 47.9357 232.597 47.9357ZM226.247 31.2809C226.171 31.0003 226.019 30.8223 225.766 30.8223C225.488 30.8223 225.336 31.0003 225.26 31.2809L222.96 39.6718H228.551L226.247 31.2809Z" fill="#007AFF"/>
<path d="M245.044 30.9752H240.111V47.4242C240.111 47.6822 239.934 47.9344 239.655 47.9344H238.264C238.011 47.9344 237.809 47.7048 237.809 47.4242V30.9752H232.875C232.597 30.9752 232.369 30.8462 232.369 30.5669V29.4445C232.369 29.1865 232.597 28.9858 232.875 28.9858H245.044C245.323 28.9858 245.525 29.1645 245.525 29.4445V30.5669C245.525 30.8223 245.323 30.9752 245.044 30.9752Z" fill="#007AFF"/>
<path d="M250.483 47.9357H249.092C248.836 47.9357 248.637 47.7061 248.637 47.4255V29.4703C248.637 29.2155 248.814 28.9858 249.092 28.9858H250.483C250.545 28.9864 250.606 28.9995 250.663 29.0244C250.72 29.0492 250.771 29.0854 250.813 29.1306C250.856 29.1758 250.889 29.2292 250.911 29.2876C250.932 29.346 250.942 29.4081 250.939 29.4703V47.428C250.939 47.6809 250.762 47.9357 250.483 47.9357Z" fill="#007AFF"/>
<path d="M261.538 48.1142C257.566 48.1142 254.682 45.7675 254.682 40.1058V36.816C254.682 31.1543 257.568 28.8076 261.538 28.8076C265.507 28.8076 268.368 31.1543 268.368 36.816V40.1058C268.369 45.7675 265.51 48.1142 261.538 48.1142ZM266.041 36.8154C266.041 32.5309 264.321 30.8983 261.538 30.8983C258.78 30.8983 257.009 32.5309 257.009 36.8154V40.1052C257.009 44.3896 258.755 46.0223 261.538 46.0223C264.296 46.0223 266.041 44.3896 266.041 40.1052V36.8154Z" fill="#007AFF"/>
<path d="M284.384 47.9355H282.816C282.411 47.9355 282.133 47.7826 282.006 47.5272L274.189 32.556C274.163 32.5051 274.138 32.4799 274.113 32.4799C274.087 32.4799 274.088 32.5051 274.088 32.556V47.4511C274.088 47.7091 273.885 47.9355 273.632 47.9355H272.317C272.063 47.9355 271.861 47.8845 271.861 47.6291V29.6997C271.862 29.604 271.881 29.5094 271.918 29.4214C271.956 29.3333 272.01 29.2537 272.079 29.1872C272.147 29.1206 272.228 29.0685 272.317 29.0339C272.405 28.9993 272.5 28.9829 272.595 28.9856H273.986C274.692 28.9856 274.82 29.1147 275.023 29.4959L282.791 44.3903L282.841 44.467C282.866 44.467 282.866 44.4161 282.866 44.3903V29.4701C282.865 29.3456 282.911 29.2255 282.996 29.135C283.081 29.0446 283.198 28.991 283.322 28.9856H284.662C284.94 28.9856 285.117 29.2153 285.117 29.4701V47.1956C285.117 47.3915 285.04 47.5794 284.903 47.7181C284.765 47.8568 284.579 47.935 284.384 47.9355Z" fill="#007AFF"/>
<path d="M69.1098 48.1144C65.1383 48.1144 62.2539 45.7676 62.2539 40.1053V36.8155C62.2539 31.1532 65.1402 28.8071 69.1098 28.8071C73.0794 28.8071 75.9407 31.1532 75.9407 36.8155V40.1053C75.9407 45.7676 73.082 48.1144 69.1098 48.1144ZM73.6131 36.8155C73.6131 32.531 71.8928 30.8984 69.1098 30.8984C66.3518 30.8984 64.5815 32.531 64.5815 36.8155V40.1053C64.5815 44.3904 66.3268 46.0224 69.1098 46.0224C71.8678 46.0224 73.6131 44.3904 73.6131 40.1053V36.8155Z" fill="#212121" stroke="#212121" stroke-width="0.958371" stroke-miterlimit="10"/>
<path d="M91.9549 47.9355H90.3867C89.982 47.9355 89.7036 47.7826 89.5773 47.5272L81.7593 32.556C81.7343 32.5051 81.7086 32.4793 81.6836 32.4793C81.6586 32.4793 81.6586 32.5051 81.6586 32.556V47.4511C81.6586 47.7091 81.4559 47.9355 81.2032 47.9355H79.887C79.6343 47.9355 79.4316 47.8845 79.4316 47.6291V29.6997C79.4321 29.6041 79.4516 29.5094 79.4889 29.4215C79.5263 29.3335 79.5807 29.2539 79.6491 29.1874C79.7174 29.1208 79.7983 29.0687 79.887 29.0341C79.9757 28.9994 80.0703 28.983 80.1654 28.9856H81.5572C82.2628 28.9856 82.3911 29.1146 82.5944 29.4952L90.361 44.3903L90.4117 44.467C90.4374 44.467 90.4374 44.4154 90.4374 44.3903V29.4701C90.4358 29.3456 90.4824 29.2254 90.5674 29.135C90.6524 29.0446 90.7691 28.991 90.8928 28.9856H92.2333C92.5117 28.9856 92.6887 29.2153 92.6887 29.4701V47.1956C92.6888 47.3916 92.6117 47.5796 92.4741 47.7183C92.3365 47.857 92.1498 47.9351 91.9549 47.9355Z" fill="#212121" stroke="#212121" stroke-width="0.958371" stroke-miterlimit="10"/>
<path d="M107.363 30.9752H102.429V47.4242C102.429 47.6822 102.252 47.9344 101.974 47.9344H100.581C100.328 47.9344 100.126 47.7048 100.126 47.4242V30.9752H95.1936C94.9152 30.9752 94.6875 30.8462 94.6875 30.5669V29.4445C94.6875 29.1865 94.9152 28.9858 95.1936 28.9858H107.363C107.641 28.9858 107.843 29.1639 107.843 29.4445V30.5669C107.843 30.8217 107.641 30.9752 107.363 30.9752Z" fill="#212121" stroke="#212121" stroke-width="0.958371" stroke-miterlimit="10"/>
<path d="M115.964 48.1144C111.992 48.1144 109.107 45.7676 109.107 40.1053V36.8155C109.107 31.1532 111.994 28.8071 115.964 28.8071C119.934 28.8071 122.795 31.1532 122.795 36.8155V40.1053C122.795 45.7676 119.935 48.1144 115.964 48.1144ZM120.467 36.8155C120.467 32.531 118.747 30.8984 115.964 30.8984C113.206 30.8984 111.435 32.531 111.435 36.8155V40.1053C111.435 44.3904 113.181 46.0224 115.964 46.0224C118.722 46.0224 120.467 44.3904 120.467 40.1053V36.8155Z" fill="#212121" stroke="#212121" stroke-width="0.958371" stroke-miterlimit="10"/>
<path d="M132.687 48.1144C128.589 48.1144 126.209 45.9212 126.209 41.0491V29.4703C126.209 29.4067 126.221 29.3438 126.245 29.285C126.269 29.2262 126.305 29.1728 126.349 29.1278C126.394 29.0828 126.447 29.0471 126.505 29.0227C126.564 28.9984 126.626 28.9858 126.689 28.9858H128.056C128.119 28.9858 128.181 28.9984 128.24 29.0227C128.298 29.0471 128.351 29.0828 128.396 29.1278C128.44 29.1728 128.476 29.2262 128.5 29.285C128.524 29.3438 128.536 29.4067 128.536 29.4703V41.0491C128.536 44.3389 129.548 46.125 132.685 46.125C135.822 46.125 136.834 44.3647 136.834 41.0491V29.4703C136.834 29.4067 136.847 29.3437 136.871 29.2849C136.895 29.2262 136.93 29.1728 136.975 29.1278C137.02 29.0828 137.073 29.0471 137.131 29.0227C137.19 28.9984 137.252 28.9858 137.315 28.9858H138.68C138.744 28.9858 138.806 28.9984 138.865 29.0227C138.923 29.0471 138.976 29.0828 139.021 29.1278C139.065 29.1728 139.101 29.2262 139.125 29.2849C139.149 29.3437 139.161 29.4067 139.161 29.4703V41.0491C139.164 45.9205 136.786 48.1144 132.687 48.1144Z" fill="#212121" stroke="#212121" stroke-width="0.958371" stroke-miterlimit="10"/>
<path d="M155.557 47.9355H153.938C153.635 47.9355 153.483 47.9355 153.28 47.604L148.75 40.0033H148.092C147.258 40.0033 146.65 39.9781 145.309 39.9271V47.4279C145.309 47.6859 145.132 47.9381 144.854 47.9381H143.491C143.237 47.9381 143.035 47.7085 143.035 47.4279V29.5746C143.035 29.2179 143.187 29.0644 143.642 29.0134C144.732 28.8844 146.628 28.8096 148.095 28.8096C152.092 28.8096 155.179 30.1642 155.179 34.2926V34.4706C155.179 37.3276 153.511 39.0105 151.207 39.6227L155.811 47.3763C155.859 47.4435 155.885 47.5235 155.887 47.6059C155.888 47.6496 155.88 47.6931 155.864 47.7337C155.847 47.7742 155.823 47.811 155.792 47.8419C155.761 47.8727 155.725 47.8969 155.684 47.913C155.644 47.9291 155.601 47.9368 155.557 47.9355ZM152.901 34.2906C152.901 31.7401 151.257 30.8983 148.094 30.8983C147.31 30.8983 145.918 30.8983 145.311 30.975V37.9629C146.424 37.9887 147.512 38.0139 148.094 38.0139C151.206 38.0139 152.901 37.2237 152.901 34.4661V34.2906Z" fill="#212121" stroke="#212121" stroke-width="0.958371" stroke-miterlimit="10"/>
<path d="M157.88 38.5968V38.5976H157.879V38.5968V38.5959L157.88 38.5968Z" fill="#212121"/>
<path d="M157.88 38.5967L157.879 38.5977V38.5967H157.88Z" fill="#212121"/>
<path d="M45.4782 47.9389C44.2361 48.4343 42.9087 48.6772 41.5728 48.6536C36.0901 48.5666 31.6394 44.0473 31.6029 38.5327C31.5937 37.1884 31.849 35.8555 32.3541 34.6108C32.8593 33.3661 33.6043 32.2343 34.5462 31.2804C35.4882 30.3266 36.6085 29.5695 37.8426 29.0529C39.0767 28.5364 40.4002 28.2704 41.737 28.2705C43.0182 28.269 44.288 28.5124 45.4789 28.9878C45.8729 29.1458 46.3043 29.1843 46.7198 29.0984C47.1353 29.0125 47.5166 28.8061 47.8168 28.5046L50.0046 26.3043C51.0494 25.2535 50.7742 23.4738 49.4504 22.8133C47.0535 21.6165 44.413 20.9958 41.737 21C32.1474 21 24.373 28.8181 24.373 38.463C24.373 48.1079 32.1474 55.926 41.737 55.926C44.4128 55.93 47.053 55.3093 49.4498 54.1128C50.773 53.4522 51.0494 51.6719 50.0046 50.6217L47.8168 48.4214C47.5164 48.1201 47.1349 47.9139 46.7193 47.8282C46.3037 47.7424 45.8723 47.7809 45.4782 47.9389Z" fill="#007AFF"/>
<path d="M54.3501 29.6245L51.3862 32.6066C51.1558 32.8374 50.9997 33.1326 50.9381 33.4537C50.8766 33.7749 50.9125 34.1072 51.0411 34.4076C51.2284 34.8418 51.3853 35.2887 51.5106 35.7448H46.8092C46.3281 34.8377 45.6149 34.0761 44.7433 33.5388C43.8717 33.0016 42.8733 32.708 41.8512 32.6885C38.7083 32.6286 36.0735 35.1636 35.9997 38.3238C35.9812 39.0937 36.1161 39.8596 36.3963 40.5764C36.6765 41.2931 37.0964 41.9463 37.6314 42.4974C38.1663 43.0485 38.8055 43.4864 39.5112 43.7854C40.217 44.0844 40.9751 44.2384 41.7409 44.2383C42.7817 44.2385 43.803 43.9541 44.6955 43.4155C45.5881 42.8769 46.3182 42.1045 46.8079 41.1807H51.5093C51.384 41.6371 51.2271 42.0842 51.0398 42.5186C50.9112 42.819 50.8753 43.1513 50.9369 43.4725C50.9984 43.7936 51.1545 44.0888 51.3849 44.3196L54.3501 47.3017C54.529 47.4809 54.7468 47.6159 54.9864 47.6961C55.2261 47.7762 55.4809 47.7993 55.7309 47.7634C55.9809 47.7276 56.2192 47.6338 56.427 47.4896C56.6349 47.3453 56.8065 47.1544 56.9285 46.9321C58.3597 44.3413 59.1084 41.4255 59.1035 38.4618C59.1083 35.4985 58.3595 32.5832 56.9285 29.9929C56.8065 29.7705 56.6348 29.5796 56.4269 29.4354C56.2191 29.2912 55.9807 29.1975 55.7306 29.1618C55.4806 29.1261 55.2258 29.1493 54.9862 29.2296C54.7466 29.3099 54.5288 29.4451 54.3501 29.6245Z" fill="#212121"/>
</svg>
