<svg width="72" height="8" viewBox="0 0 72 8" fill="none" xmlns="http://www.w3.org/2000/svg">
<g clip-path="url(#clip0_97_1455)">
<path d="M3.25 4.74986C4.74848 6.23683 6.77396 7.07124 8.885 7.07124C10.996 7.07124 13.0215 6.23683 14.52 4.74986C15.0623 4.20742 15.7062 3.77712 16.4148 3.48355C17.1234 3.18997 17.883 3.03887 18.65 3.03887C19.417 3.03887 20.1766 3.18997 20.8852 3.48355C21.5938 3.77712 22.2377 4.20742 22.78 4.74986C23.5178 5.49115 24.3953 6.07877 25.3616 6.47871C26.328 6.87865 27.3641 7.08298 28.41 7.07986C30.524 7.07889 32.5517 6.24121 34.05 4.74986C34.5923 4.20742 35.2362 3.77712 35.9448 3.48355C36.6534 3.18997 37.413 3.03887 38.18 3.03887C38.947 3.03887 39.7066 3.18997 40.4152 3.48355C41.1238 3.77712 41.7677 4.20742 42.31 4.74986C43.8081 6.23379 45.8314 7.06628 47.94 7.06628C50.0486 7.06628 52.0719 6.23379 53.57 4.74986C54.1123 4.20742 54.7562 3.77712 55.4648 3.48355C56.1734 3.18997 56.933 3.03887 57.7 3.03887C58.467 3.03887 59.2266 3.18997 59.9352 3.48355C60.6438 3.77712 61.2877 4.20742 61.83 4.74986C63.0871 6.00009 64.7238 6.79733 66.4832 7.01635C68.2425 7.23536 70.0248 6.86374 71.55 5.95986L69.98 4.40986C68.8917 4.93187 67.6679 5.10256 66.4783 4.89831C65.2886 4.69407 64.1919 4.12498 63.34 3.26986C61.8415 1.78289 59.816 0.948486 57.705 0.948486C55.594 0.948486 53.5685 1.78289 52.07 3.26986C51.5277 3.8123 50.8838 4.2426 50.1752 4.53618C49.4666 4.82975 48.707 4.98085 47.94 4.98085C47.173 4.98085 46.4134 4.82975 45.7048 4.53618C44.9962 4.2426 44.3523 3.8123 43.81 3.26986C42.3115 1.78289 40.286 0.948486 38.175 0.948486C36.064 0.948486 34.0385 1.78289 32.54 3.26986C31.9977 3.8123 31.3538 4.2426 30.6452 4.53618C29.9366 4.82975 29.177 4.98085 28.41 4.98085C27.643 4.98085 26.8834 4.82975 26.1748 4.53618C25.4662 4.2426 24.8223 3.8123 24.28 3.26986C22.7815 1.78289 20.756 0.948486 18.645 0.948486C16.534 0.948486 14.5085 1.78289 13.01 3.26986C12.4673 3.81029 11.8229 4.23788 11.114 4.52795C10.4052 4.81801 9.64589 4.96481 8.88 4.95986C8.11295 4.96054 7.35331 4.80984 6.6446 4.51641C5.9359 4.22297 5.29207 3.79257 4.75 3.24986C3.90171 2.41793 2.87607 1.78887 1.75 1.40986L0 3.10986C1.23227 3.29702 2.3717 3.87549 3.25 4.75986V4.74986Z" fill="#FFA737"/>
</g>
<defs>
<clipPath id="clip0_97_1455">
<rect width="71.55" height="6.16" fill="white" transform="translate(0 0.919922)"/>
</clipPath>
</defs>
</svg>
