<svg width="52" height="68" viewBox="0 0 52 68" fill="none" xmlns="http://www.w3.org/2000/svg">
<path d="M19.6367 61.1257H18.8359C18.4649 60.8588 18.0619 60.6146 17.7282 60.3023C13.9151 56.7545 10.4794 52.8215 7.47618 48.5662C4.74301 44.6747 2.43156 40.5589 1.06097 35.9747C-0.345653 31.2664 -0.484449 26.5647 1.44265 21.9685C3.94761 15.9924 8.36099 12.1208 14.6548 10.462C15.7224 10.1791 16.8434 10.0696 17.9404 9.87878H20.5428C21.4623 10.0229 22.3925 10.115 23.2987 10.3179C33.5961 12.62 40.1261 22.6825 38.1123 33.0614C37.4063 36.7007 36.065 40.0878 34.2834 43.3134C30.7655 49.6793 26.1426 55.1723 20.8951 60.1689C20.5148 60.5305 20.057 60.8081 19.6367 61.1257ZM18.916 39.7728C24.6826 40.0398 29.6218 35.3982 29.9087 29.442C30.189 23.6541 25.5181 18.6828 19.5553 18.4226C13.774 18.1677 8.82675 22.824 8.55984 28.7507C8.30227 34.5574 12.9412 39.4953 18.916 39.7728Z" fill="#F0114B"/>
</svg>
