<svg width="393" height="49" viewBox="0 0 393 49" fill="none" xmlns="http://www.w3.org/2000/svg">
<path d="M1.1167 0.612549C1.1167 0.612549 6.91558 5.77377 11.6792 11.1225C16.4428 16.4713 43.4492 36.3285 57.2224 40.2969C70.9882 44.2654 89.7876 48.7664 100.38 48.5039C110.973 48.2413 127.387 33.4553 136.651 28.3991C145.916 23.3504 173.455 20.7323 189.606 25.4809C205.758 30.2296 219.793 36.0584 226.672 41.6173C233.559 47.1761 248.383 45.0606 259.238 42.4124C270.093 39.7643 282.276 43.2076 291.008 39.7643C299.747 36.321 303.453 30.4996 320.13 34.2055C336.813 37.9114 346.341 35.5708 354.022 28.3991C361.704 21.2274 363.025 13.088 392.942 14.2433" stroke="#007AFF" stroke-width="0.626235" stroke-miterlimit="10"/>
</svg>
