<svg width="371" height="177" viewBox="0 0 371 177" fill="none" xmlns="http://www.w3.org/2000/svg">
<path d="M370.541 172.51C363.332 174.685 333.482 168.526 314.766 167.514C296.049 166.501 278.404 166.058 263.221 162.517C248.037 158.976 249.448 161.467 224.032 165.646C198.616 169.824 203.559 165.706 187.671 171.002C171.782 176.298 157.663 177.708 147.776 175.203C137.896 172.697 137.191 160.769 133.305 145.586C129.419 130.41 120.95 121.933 117.064 108.872C113.178 95.8116 103.291 90.8679 83.876 84.5139C64.4539 78.1599 68.3399 66.8622 61.6333 53.0965C54.9267 39.3307 43.629 46.0373 33.0365 41.7988C22.444 37.5603 16.09 10.3814 11.1464 5.79034C9.17175 4.09403 4.34578 0.701416 0.838867 0.701416" stroke="#007AFF" stroke-width="0.626235" stroke-miterlimit="10"/>
</svg>
