<svg width="370" height="184" viewBox="0 0 370 184" fill="none" xmlns="http://www.w3.org/2000/svg">
<path d="M2.4751 3.31763C11.2424 8.32752 20.7684 40.9926 31.3609 45.2311C41.9534 49.4696 53.251 42.763 59.9576 56.5287C66.6642 70.2945 62.7783 81.5922 82.2003 87.9462C101.615 94.3002 111.502 99.2438 115.388 112.304C119.274 125.365 127.744 133.842 131.63 149.018C135.515 164.202 136.221 176.13 146.1 178.635C155.988 181.141 170.106 179.73 185.995 174.434C201.884 169.138 196.94 173.256 222.356 169.078C247.772 164.899 246.362 162.409 261.545 165.95C276.729 169.49 294.373 169.933 313.09 170.946C331.807 171.959 361.656 178.117 368.866 175.942" stroke="#007AFF" stroke-width="7.51482" stroke-miterlimit="10" stroke-dasharray="2.5 7.51"/>
</svg>
