<svg width="393" height="49" viewBox="0 0 393 49" fill="none" xmlns="http://www.w3.org/2000/svg">
<path d="M1.1167 0.602539C1.1167 0.602539 6.91558 5.76377 11.6792 11.1125C16.4428 16.4613 43.4492 36.3185 57.2224 40.2869C70.9882 44.2554 89.7876 48.7564 100.38 48.4939C110.973 48.2313 127.386 33.4453 136.651 28.3891C145.916 23.3404 173.455 20.7223 189.606 25.4709C205.758 30.2196 219.793 36.0484 226.672 41.6073C233.559 47.1661 248.383 45.0506 259.238 42.4024C270.093 39.7543 282.276 43.1976 291.008 39.7543C299.747 36.311 303.453 30.4896 320.13 34.1955C336.813 37.9014 346.341 35.5608 354.022 28.3891C361.704 21.2174 363.025 13.078 392.942 14.2333" stroke="#007AFF" stroke-width="0.626235" stroke-miterlimit="10"/>
</svg>
