<svg width="33" height="48" viewBox="0 0 33 48" fill="none" xmlns="http://www.w3.org/2000/svg">
<path d="M16.5587 47.7048C15.6779 46.5936 14.8157 45.5454 13.9912 44.4654C10.9236 40.4466 8.01825 36.3168 5.50848 31.9203C3.62764 28.6267 1.9483 25.2399 0.869724 21.5841C-0.402197 17.2735 -0.036265 13.1052 2.07792 9.14347C3.96988 5.59884 6.81893 3.06092 10.568 1.58751C14.0415 0.219285 17.5958 0.0740895 21.179 1.11711C24.5058 2.08531 27.2437 3.96097 29.4083 6.66186C31.4084 9.15755 32.5499 12.0199 32.9026 15.1897C33.1433 17.3558 32.8448 19.4759 32.2107 21.553C31.1432 25.0532 29.532 28.3119 27.7319 31.4795C24.5466 37.0835 20.8263 42.3208 16.8424 47.3759C16.7721 47.4618 16.6935 47.5463 16.5587 47.7048ZM9.55834 16.6987C9.55019 18.5569 10.2805 20.3422 11.5887 21.6619C12.8969 22.9816 14.6757 23.7276 16.5339 23.7357C18.3921 23.7439 20.1774 23.0135 21.4971 21.7054C22.8168 20.3972 23.5628 18.6184 23.5709 16.7602C23.6065 12.9081 20.456 9.72943 16.5913 9.71313C15.6704 9.70845 14.7576 9.8856 13.9053 10.2344C13.053 10.5832 12.278 11.0969 11.6246 11.7458C10.9712 12.3948 10.4524 13.1664 10.0978 14.0163C9.74321 14.8662 9.55989 15.7778 9.55834 16.6987Z" fill="#D62424"/>
</svg>
