<svg width="395" height="56" viewBox="0 0 395 56" fill="none" xmlns="http://www.w3.org/2000/svg">
<path d="M3.00293 3.65088C3.00293 3.65088 8.80181 8.8121 13.5654 14.1609C18.3291 19.5096 45.3354 39.3668 59.1087 43.3353C72.8744 47.3037 91.6739 51.8048 102.266 51.5422C112.859 51.2796 129.273 36.4937 138.537 31.4375C147.802 26.3888 175.341 23.7706 191.492 28.5193C207.644 33.2679 221.68 39.0968 228.559 44.6556C235.445 50.2144 250.269 48.0989 261.124 45.4508C271.979 42.8026 284.162 46.2459 292.894 42.8026C301.633 39.3593 305.339 33.538 322.016 37.2438C338.7 40.9497 348.227 38.6092 355.909 31.4375C363.591 24.2658 364.911 16.1264 394.828 17.2816" stroke="#007AFF" stroke-width="7.51482" stroke-miterlimit="10" stroke-dasharray="2.5 7.51"/>
</svg>
