<svg width="366" height="178" viewBox="0 0 366 178" fill="none" xmlns="http://www.w3.org/2000/svg">
<path d="M0.605957 1.18652C8.12077 5.57019 16.9135 37.9662 27.506 42.2047C38.0985 46.4432 49.3962 39.7366 56.1027 53.5023C62.8093 67.2681 58.9234 78.5658 78.3455 84.9198C97.7601 91.2738 107.647 96.2174 111.533 109.278C115.419 122.339 123.889 130.816 127.775 145.992C131.661 161.175 132.366 173.103 142.246 175.609C152.133 178.114 166.251 176.704 182.14 171.408C198.029 166.111 193.085 170.23 218.501 166.051C243.917 161.873 242.507 159.382 257.69 162.923C272.874 166.464 290.518 166.907 309.235 167.919C327.952 168.932 357.801 175.091 365.011 172.916" stroke="#007AFF" stroke-width="0.626235" stroke-miterlimit="10"/>
</svg>
